<svg width="49" height="60" viewBox="0 0 49 60" fill="none" xmlns="http://www.w3.org/2000/svg">
<mask id="path-1-inside-1_601_27241" fill="white">
<path fill-rule="evenodd" clip-rule="evenodd" d="M0 0V44.0917C0 51.2231 5.93345 56.9221 13.059 56.6347L16.7144 56.4873C19.7181 56.3661 22.6032 57.6678 24.5 60C26.3968 57.6678 29.2819 56.3661 32.2856 56.4873L35.941 56.6347C43.0666 56.9221 49 51.2231 49 44.0917V0H24.5H0Z"/>
</mask>
<path fill-rule="evenodd" clip-rule="evenodd" d="M0 0V44.0917C0 51.2231 5.93345 56.9221 13.059 56.6347L16.7144 56.4873C19.7181 56.3661 22.6032 57.6678 24.5 60C26.3968 57.6678 29.2819 56.3661 32.2856 56.4873L35.941 56.6347C43.0666 56.9221 49 51.2231 49 44.0917V0H24.5H0Z" fill="#E4E5EA"/>
<path d="M0 0V-1.77804H-1.77804V0H0ZM13.059 56.6347L13.1307 58.4113H13.1307L13.059 56.6347ZM16.7144 56.4873L16.6427 54.7107H16.6427L16.7144 56.4873ZM24.5 60L23.1206 61.1219L24.5 62.8179L25.8794 61.1219L24.5 60ZM32.2856 56.4873L32.3573 54.7107L32.2856 56.4873ZM35.941 56.6347L35.8693 58.4113L35.941 56.6347ZM49 0H50.778V-1.77804H49V0ZM1.77804 44.0917V0H-1.77804V44.0917H1.77804ZM12.9874 54.8581C6.87107 55.1048 1.77804 50.213 1.77804 44.0917H-1.77804C-1.77804 52.2332 4.99583 58.7394 13.1307 58.4113L12.9874 54.8581ZM16.6427 54.7107L12.9874 54.8581L13.1307 58.4113L16.786 58.2639L16.6427 54.7107ZM25.8794 58.8781C23.6291 56.1113 20.2063 54.567 16.6427 54.7107L16.786 58.2639C19.2299 58.1653 21.5773 59.2244 23.1206 61.1219L25.8794 58.8781ZM25.8794 61.1219C27.4227 59.2244 29.7701 58.1653 32.214 58.2639L32.3573 54.7107C28.7937 54.567 25.3709 56.1113 23.1206 58.8781L25.8794 61.1219ZM32.214 58.2639L35.8693 58.4113L36.0126 54.8581L32.3573 54.7107L32.214 58.2639ZM35.8693 58.4113C44.0042 58.7394 50.778 52.2332 50.778 44.0917H47.222C47.222 50.213 42.1289 55.1048 36.0126 54.8581L35.8693 58.4113ZM50.778 44.0917V0H47.222V44.0917H50.778ZM49 -1.77804H24.5V1.77804H49V-1.77804ZM0 1.77804H24.5V-1.77804H0V1.77804Z" fill="#202022" mask="url(#path-1-inside-1_601_27241)"/>
<mask id="mask0_601_27241" style="mask-type:alpha" maskUnits="userSpaceOnUse" x="0" y="0" width="49" height="60">
<mask id="path-3-inside-2_601_27241" fill="white">
<path fill-rule="evenodd" clip-rule="evenodd" d="M0 0V44.0917C0 51.2231 5.93345 56.9221 13.059 56.6347L16.7144 56.4873C19.7181 56.3661 22.6032 57.6678 24.5 60C26.3968 57.6678 29.2819 56.3661 32.2856 56.4873L35.941 56.6347C43.0666 56.9221 49 51.2231 49 44.0917V0H24.5H0Z"/>
</mask>
<path fill-rule="evenodd" clip-rule="evenodd" d="M0 0V44.0917C0 51.2231 5.93345 56.9221 13.059 56.6347L16.7144 56.4873C19.7181 56.3661 22.6032 57.6678 24.5 60C26.3968 57.6678 29.2819 56.3661 32.2856 56.4873L35.941 56.6347C43.0666 56.9221 49 51.2231 49 44.0917V0H24.5H0Z" fill="#C6CCD8"/>
<path d="M0 0V-1.77804H-1.77804V0H0ZM13.059 56.6347L13.1307 58.4113H13.1307L13.059 56.6347ZM16.7144 56.4873L16.6427 54.7107H16.6427L16.7144 56.4873ZM24.5 60L23.1206 61.1219L24.5 62.8179L25.8794 61.1219L24.5 60ZM32.2856 56.4873L32.3573 54.7107L32.2856 56.4873ZM35.941 56.6347L35.8693 58.4113L35.941 56.6347ZM49 0H50.778V-1.77804H49V0ZM1.77804 44.0917V0H-1.77804V44.0917H1.77804ZM12.9874 54.8581C6.87107 55.1048 1.77804 50.213 1.77804 44.0917H-1.77804C-1.77804 52.2332 4.99583 58.7394 13.1307 58.4113L12.9874 54.8581ZM16.6427 54.7107L12.9874 54.8581L13.1307 58.4113L16.786 58.2639L16.6427 54.7107ZM25.8794 58.8781C23.6291 56.1113 20.2063 54.567 16.6427 54.7107L16.786 58.2639C19.2299 58.1653 21.5773 59.2244 23.1206 61.1219L25.8794 58.8781ZM25.8794 61.1219C27.4227 59.2244 29.7701 58.1653 32.214 58.2639L32.3573 54.7107C28.7937 54.567 25.3709 56.1113 23.1206 58.8781L25.8794 61.1219ZM32.214 58.2639L35.8693 58.4113L36.0126 54.8581L32.3573 54.7107L32.214 58.2639ZM35.8693 58.4113C44.0042 58.7394 50.778 52.2332 50.778 44.0917H47.222C47.222 50.213 42.1289 55.1048 36.0126 54.8581L35.8693 58.4113ZM50.778 44.0917V0H47.222V44.0917H50.778ZM49 -1.77804H24.5V1.77804H49V-1.77804ZM0 1.77804H24.5V-1.77804H0V1.77804Z" fill="#202022" mask="url(#path-3-inside-2_601_27241)"/>
</mask>
<g mask="url(#mask0_601_27241)">
<rect x="0.108398" y="28.2793" width="48.9082" height="30.1075" fill="#202022"/>
</g>
<path d="M0.120605 28.2969H49.0001" stroke="#202022" stroke-width="1.77804"/>
<g clip-path="url(#clip0_601_27241)">
<path d="M35.3568 4.69957L33.3053 5.80921C33.2394 5.84482 33.2149 5.92758 33.2508 5.9929L33.2817 6.04907L30.2426 7.69288L29.4417 6.23631C29.2191 5.83134 28.8408 6.15628 28.824 6.32466L28.5708 7.6599C28.5446 7.75205 28.5449 7.87388 28.565 7.98503L28.5347 8.00141L28.552 8.03276L20.4725 12.074C20.2569 12.1822 20.1341 12.3689 20.1905 12.4994L19.6335 12.8007L19.4747 12.7324L19.1945 12.2229C19.0559 11.9708 18.6987 11.8928 18.3896 12.0329L14.8706 13.6397C14.5702 13.7768 14.3224 14.1278 14.3169 14.4409L14.2988 15.4489L13.7708 15.7345C13.705 15.7701 13.6765 16.0415 13.6671 16.3973L14.2195 17.4019L13.4626 16.5131L7.45416 19.7629C7.04201 19.9859 6.74586 20.2986 7.11361 20.9674L8.4977 23.4848C8.75699 23.9563 9.27532 23.7184 9.60487 23.3452L13.8061 18.3C14.128 17.9564 14.8621 17.4831 15.1965 17.5819C15.5649 17.6894 15.7978 17.9888 15.7661 18.4314C15.7344 18.8739 15.4796 20.9676 15.6096 21.2041C15.7396 21.4405 15.8509 21.3633 15.9971 21.2843L16.8556 20.8199C17.0268 20.7273 17.3622 20.4612 17.0585 20.2848C16.7561 20.1077 16.9725 18.289 16.9725 18.289L18.8226 17.2883L20.6032 20.5267C20.7044 20.7109 20.7786 20.7216 20.9775 20.6141L22.3258 19.8848C22.5115 19.7844 22.6492 19.6929 22.563 19.5362L20.6991 16.1462L18.9326 17.1932L20.6967 15.8001L20.0704 14.661L20.0748 14.6535C20.0987 14.6287 20.2002 14.5212 20.2369 14.3641L19.599 13.2041L20.3204 14.3172L20.9064 14.0003L20.338 12.7739L21.039 14.0489C21.1108 14.1795 21.343 14.176 21.555 14.0427L29.2164 9.24113L29.2939 9.38221L29.4664 9.28891L29.3824 9.13607L29.4638 9.08526C29.5386 9.03802 29.5659 8.93851 29.5243 8.86275L29.4158 8.66549L30.1677 8.25881L30.4491 8.67435L30.7059 8.53547L30.4653 8.09785L33.5044 6.45404L33.546 6.5298C33.5819 6.59512 33.6654 6.61948 33.7312 6.58387L35.7827 5.47423C35.8486 5.43861 35.8731 5.35585 35.8372 5.29054L35.5413 4.75232C35.5053 4.68701 35.4219 4.66265 35.3561 4.69826L35.3568 4.69957ZM8.44342 20.0583C8.27487 20.1495 8.21395 20.3587 8.30517 20.5246L8.67137 21.9519L7.90786 20.5633C7.81592 20.396 7.87888 20.1874 8.04611 20.097L12.3704 17.758C12.4441 17.7181 12.492 17.7058 12.5132 17.7164L8.4421 20.059L8.44342 20.0583ZM20.5957 17.0021C20.5655 16.9473 20.5866 16.8799 20.6406 16.8507C20.6945 16.8215 20.7637 16.8417 20.7932 16.8953L22.1557 19.3734C22.1859 19.4283 22.1648 19.4956 22.1108 19.5248C22.0569 19.554 21.9877 19.5338 21.9582 19.4803L20.5957 17.0021ZM19.99 17.3298C19.9598 17.2749 19.9809 17.2076 20.0348 17.1784C20.0888 17.1492 20.158 17.1694 20.1875 17.2229L21.55 19.701C21.5802 19.7559 21.5591 19.8232 21.5051 19.8524C21.4511 19.8816 21.382 19.8614 21.3525 19.8079L19.99 17.3298ZM19.3842 17.6574C19.3541 17.6025 19.3751 17.5352 19.4291 17.506C19.4831 17.4768 19.5523 17.497 19.5818 17.5505L20.9443 20.0287C20.9745 20.0835 20.9534 20.1509 20.8994 20.1801C20.8454 20.2093 20.7762 20.1891 20.7468 20.1355L19.3842 17.6574ZM18.5952 16.9215C18.634 16.992 18.6084 17.0821 18.536 17.1213L17.0704 17.914C16.9993 17.9525 16.9085 17.927 16.869 17.8552L16.5831 17.3353C16.8001 17.4908 17.0765 17.5429 17.3374 17.4798C17.4578 17.4503 17.4455 17.3874 17.3297 17.3416C17.1649 17.2748 17.0185 17.1608 16.9128 17.0027C16.8759 16.9481 16.8469 16.8892 16.8226 16.8295L18.0196 16.1821C18.0907 16.1436 18.1815 16.169 18.221 16.2409L18.5952 16.9215ZM18.1601 14.4366L17.4319 14.8305C17.4234 14.7809 17.4089 14.7328 17.3831 14.6857C17.3572 14.6387 17.3243 14.6006 17.2868 14.5666L17.2854 14.564C17.2702 14.5519 17.255 14.5398 17.2392 14.5297C17.2337 14.5259 17.2282 14.5221 17.2226 14.5183C17.2076 14.5095 17.1918 14.4994 17.1761 14.4926C17.1693 14.4895 17.1611 14.4871 17.1543 14.4841C17.1305 14.4749 17.1061 14.4678 17.0823 14.462C17.0668 14.4585 17.0533 14.4557 17.0384 14.4535C17.0276 14.4526 17.0156 14.4523 17.0048 14.4514C16.9886 14.4499 16.9732 14.4498 16.9571 14.4517C16.9471 14.4521 16.9357 14.4531 16.9264 14.4548C16.909 14.4574 16.8903 14.4607 16.8724 14.4654C16.8638 14.4683 16.8557 14.4693 16.8471 14.4722C16.8213 14.4811 16.7954 14.49 16.7704 14.5036C16.7454 14.5171 16.7231 14.5325 16.701 14.5513C16.6938 14.5569 16.6873 14.5638 16.6815 14.5686C16.6678 14.5811 16.6555 14.5929 16.6433 14.6079C16.6362 14.6168 16.6297 14.6237 16.624 14.6319C16.6144 14.6456 16.6062 14.6585 16.5979 14.6715C16.5929 14.6809 16.5858 14.6899 16.5815 14.7007C16.5753 14.7142 16.5698 14.729 16.5649 14.7419C16.5556 14.7655 16.5485 14.7897 16.5446 14.8138C16.5436 14.8212 16.5412 14.8293 16.5401 14.8366C16.538 14.8547 16.5373 14.872 16.5366 14.8893C16.5369 14.896 16.5371 14.9026 16.5373 14.9093C16.5373 14.9279 16.5394 14.9472 16.5427 14.9657L16.5442 14.9683C16.5527 15.0179 16.5671 15.066 16.593 15.1131C16.6189 15.1601 16.6518 15.1982 16.6892 15.2322L14.8129 16.2471C14.7391 16.287 14.6475 16.2603 14.6073 16.1871C14.5671 16.1139 14.594 16.0231 14.6678 15.9832L16.5191 14.9818C16.3992 14.7637 16.4813 14.4905 16.7012 14.3715C16.9211 14.2526 17.1971 14.3321 17.3171 14.5502L18.0216 14.1692C18.0953 14.1293 18.1869 14.156 18.2271 14.2292C18.2673 14.3024 18.2404 14.3932 18.1667 14.4331L18.1601 14.4366ZM19.2643 12.7818C19.2271 12.7917 19.1887 12.8057 19.1518 12.8257L15.4991 14.8014L15.4528 14.1112C15.44 13.9232 15.5606 13.6953 15.7197 13.6025C15.7276 13.5982 15.7368 13.5932 15.7447 13.5889L18.6166 12.222C18.7631 12.1529 18.9426 12.1965 19.0094 12.318L19.2643 12.7818ZM28.7685 7.87665C28.7702 7.84863 28.7719 7.82061 28.7798 7.79769L29.1051 6.69294L29.602 7.42582L28.7672 7.87737L28.7685 7.87665ZM29.1944 8.25981L29.1075 8.10174L29.8067 7.72355L29.9081 7.87378L29.1944 8.25981Z" fill="#202022"/>
</g>
<g clip-path="url(#clip1_601_27241)">
<path d="M13.6948 4.70298L15.7464 5.81237C15.8123 5.84797 15.8368 5.93072 15.8009 5.99603L15.77 6.0522L18.8093 7.69564L19.6103 6.23917C19.8331 5.83423 20.2113 6.1591 20.2281 6.32746L20.4813 7.66256C20.5075 7.75469 20.5071 7.87651 20.487 7.98765L20.5173 8.00402L20.5001 8.03537L28.5801 12.0757C28.7957 12.1838 28.9185 12.3705 28.8621 12.501L29.4191 12.8022L29.578 12.7339L29.8582 12.2245C29.9969 11.9724 30.3541 11.8944 30.6632 12.0344L34.1825 13.6408C34.483 13.7779 34.7307 14.1288 34.7362 14.4419L34.7542 15.4498L35.2823 15.7353C35.3481 15.7709 35.3766 16.0422 35.3859 16.3981L34.8334 17.4026L35.5905 16.5138L41.5993 19.7629C42.0115 19.9858 42.3076 20.2985 41.9398 20.9673L40.5554 23.4844C40.296 23.956 39.7777 23.7181 39.4481 23.345L35.2467 18.3006C34.9248 17.9571 34.1908 17.4839 33.8563 17.5826C33.4879 17.6902 33.2549 17.9895 33.2866 18.4321C33.3183 18.8746 33.573 20.968 33.4429 21.2044C33.3129 21.4409 33.2016 21.3637 33.0554 21.2847L32.1968 20.8204C32.0256 20.7279 31.6902 20.4617 31.9939 20.2853C32.2963 20.1082 32.08 18.2898 32.08 18.2898L30.2299 17.2893L28.4489 20.5275C28.3476 20.7117 28.2734 20.7224 28.0745 20.6149L26.7261 19.8857C26.5404 19.7853 26.4027 19.694 26.4889 19.5372L28.3532 16.1475L30.1198 17.1942L28.3557 15.8014L28.9821 14.6623L28.9777 14.6548C28.9538 14.63 28.8522 14.5226 28.8156 14.3655L29.4536 13.2056L28.7321 14.3186L28.1461 14.0018L28.7146 12.7755L28.0134 14.0504C27.9416 14.181 27.7094 14.1775 27.4974 14.0442L19.8355 9.24366L19.7579 9.38473L19.5854 9.29145L19.6695 9.13862L19.5881 9.08782C19.5133 9.04059 19.486 8.9411 19.5276 8.86533L19.6361 8.66809L18.8842 8.2615L18.6027 8.67702L18.3459 8.53817L18.5866 8.10058L15.5473 6.45714L15.5056 6.5329C15.4697 6.59822 15.3862 6.62258 15.3204 6.58698L13.2687 5.47759C13.2029 5.44198 13.1784 5.35923 13.2143 5.29392L13.5103 4.75574C13.5462 4.69043 13.6296 4.66607 13.6955 4.70167L13.6948 4.70298ZM40.6099 20.0584C40.7785 20.1495 40.8394 20.3587 40.7481 20.5246L40.3818 21.9517L41.1455 20.5632C41.2375 20.396 41.1745 20.1874 41.0073 20.097L36.6827 17.7586C36.609 17.7187 36.5611 17.7063 36.5399 17.7169L40.6112 20.0591L40.6099 20.0584ZM28.4566 17.0033C28.4868 16.9484 28.4657 16.8811 28.4117 16.8519C28.3577 16.8227 28.2885 16.8429 28.2591 16.8965L26.8962 19.3744C26.866 19.4293 26.8871 19.4966 26.9411 19.5258C26.9951 19.555 27.0643 19.5348 27.0937 19.4812L28.4566 17.0033ZM29.0624 17.3308C29.0925 17.276 29.0715 17.2086 29.0175 17.1795C28.9635 17.1503 28.8943 17.1705 28.8648 17.224L27.502 19.702C27.4718 19.7568 27.4929 19.8242 27.5469 19.8534C27.6008 19.8825 27.67 19.8623 27.6995 19.8088L29.0624 17.3308ZM29.6681 17.6584C29.6983 17.6035 29.6772 17.5362 29.6232 17.507C29.5692 17.4778 29.5 17.498 29.4706 17.5516L28.1077 20.0295C28.0775 20.0844 28.0986 20.1517 28.1526 20.1809C28.2066 20.2101 28.2758 20.1899 28.3053 20.1363L29.6681 17.6584ZM30.4572 16.9225C30.4184 16.993 30.4441 17.0831 30.5165 17.1223L31.9821 17.9148C32.0533 17.9533 32.1441 17.9279 32.1836 17.856L32.4696 17.3361C32.2525 17.4916 31.9761 17.5438 31.7152 17.4807C31.5948 17.4512 31.6071 17.3883 31.7229 17.3425C31.8877 17.2757 32.0342 17.1617 32.1399 17.0036C32.1768 16.949 32.2057 16.8901 32.2301 16.8304L31.033 16.1831C30.9619 16.1447 30.8711 16.1701 30.8315 16.2419L30.4572 16.9225ZM30.8926 14.4379L31.6208 14.8317C31.6294 14.782 31.6438 14.7339 31.6697 14.6869C31.6956 14.6399 31.7285 14.6018 31.766 14.5678L31.7674 14.5652C31.7826 14.5531 31.7978 14.541 31.8136 14.5309C31.8191 14.5271 31.8246 14.5233 31.8301 14.5195C31.8452 14.5107 31.861 14.5006 31.8767 14.4938C31.8835 14.4907 31.8917 14.4883 31.8985 14.4852C31.9223 14.4761 31.9468 14.469 31.9705 14.4631C31.986 14.4597 31.9996 14.4568 32.0144 14.4547C32.0252 14.4537 32.0373 14.4535 32.048 14.4525C32.0642 14.4511 32.0796 14.451 32.0957 14.4529C32.1057 14.4532 32.1171 14.4543 32.1265 14.456C32.1438 14.4586 32.1625 14.4619 32.1804 14.4665C32.1891 14.4695 32.1971 14.4704 32.2057 14.4734C32.2316 14.4823 32.2574 14.4912 32.2824 14.5047C32.3075 14.5183 32.3297 14.5337 32.3519 14.5524C32.3591 14.558 32.3655 14.5649 32.3714 14.5698C32.385 14.5822 32.3974 14.594 32.4096 14.6091C32.4166 14.618 32.4231 14.6249 32.4289 14.633C32.4384 14.6467 32.4467 14.6596 32.4549 14.6726C32.46 14.6821 32.467 14.691 32.4713 14.7018C32.4776 14.7153 32.4831 14.7302 32.488 14.743C32.4972 14.7666 32.5044 14.7908 32.5082 14.8149C32.5093 14.8223 32.5117 14.8304 32.5128 14.8377C32.5148 14.8558 32.5155 14.8731 32.5162 14.8904C32.516 14.8971 32.5157 14.9037 32.5155 14.9104C32.5155 14.929 32.5135 14.9483 32.5101 14.9668L32.5087 14.9694C32.5002 15.019 32.4857 15.0671 32.4598 15.1141C32.434 15.1612 32.401 15.1993 32.3636 15.2333L34.2401 16.2479C34.3138 16.2878 34.4054 16.2611 34.4456 16.1879C34.4859 16.1148 34.4589 16.024 34.3852 15.9841L32.5337 14.9829C32.6537 14.7648 32.5716 14.4916 32.3517 14.3727C32.1317 14.2538 31.8557 14.3333 31.7357 14.5514L31.0312 14.1705C30.9574 14.1306 30.8658 14.1573 30.8256 14.2305C30.7854 14.3036 30.8123 14.3944 30.886 14.4343L30.8926 14.4379ZM29.7884 12.7833C29.8256 12.7932 29.864 12.8072 29.9009 12.8272L33.5538 14.8024L33.6002 14.1123C33.6131 13.9244 33.4924 13.6964 33.3333 13.6036C33.3254 13.5994 33.3162 13.5944 33.3083 13.5901L30.4362 12.2235C30.2897 12.1544 30.1102 12.1981 30.0434 12.3195L29.7884 12.7833ZM20.2835 7.8793C20.2818 7.85127 20.2802 7.82325 20.2723 7.80034L19.947 6.69573L19.4499 7.42856L20.2848 7.88001L20.2835 7.8793ZM19.8575 8.26244L19.9444 8.10438L19.2452 7.72628L19.1438 7.8765L19.8575 8.26244Z" fill="#202022"/>
</g>
<path d="M22.9789 48.2317C22.9784 48.2303 22.9772 48.2292 22.9752 48.2285L22.9733 48.2292C22.9751 48.23 22.977 48.2308 22.9789 48.2317ZM3.94001 34.9973C3.62757 35.2519 3.30659 35.5147 3.06281 35.8456C2.95546 35.9913 2.93594 36.1258 3.00771 36.2101C3.08598 36.299 3.22287 36.292 3.41356 36.1886C4.56 35.5626 5.52607 35.3905 6.28364 35.6787C7.45646 36.1222 8.53449 36.9789 9.5817 38.296C10.1173 38.9698 10.5977 39.7006 11.0613 40.4076C11.3652 40.8699 11.6768 41.3457 12.0049 41.8032C12.6448 42.7011 13.6553 43.9859 15.0428 44.7697C15.4326 44.9915 15.8462 45.1665 16.2735 45.2867C17.1105 45.5247 17.9502 45.5456 18.6985 45.3443C18.7967 45.3174 18.8944 45.2952 18.9881 45.2748C19.2481 45.2145 19.4959 45.159 19.7492 45.0168C19.8728 44.9469 19.9979 44.8694 20.1186 44.7983C20.4117 44.6193 20.7169 44.4355 21.0457 44.3105C21.4605 44.1516 21.92 44.0925 22.3714 44.1374C22.6056 44.1601 22.8209 44.2066 23.0185 44.2742C23.1431 44.319 23.6415 44.3923 23.6415 44.3923C24.5288 44.4133 25.4455 44.4369 26.3456 44.5137C26.791 44.5493 27.2605 44.6036 27.6696 44.8084C27.9007 44.924 28.1079 45.0863 28.3099 45.2414C28.4515 45.3523 28.5968 45.4663 28.7514 45.5626C29.5241 46.0537 30.557 46.1839 31.6627 45.9286C32.193 45.8039 32.7492 45.5962 33.4164 45.2696C33.7032 45.1284 33.9868 44.9789 34.2498 44.8377C34.5076 44.7007 34.7067 44.5002 34.8831 44.3202C35.7834 43.4111 36.4921 42.3496 37.2596 41.1571C37.5606 40.691 37.7925 40.1769 38.0171 39.6798C38.2951 39.0678 38.5809 38.4339 38.9939 37.893C39.4782 37.2582 40.1673 36.7024 41.0988 36.1963C42.1475 35.6278 43.0253 35.4364 43.7835 35.6139C44.1135 35.6927 44.4283 35.8456 44.6927 36.0559C44.7029 36.0636 44.7168 36.0628 44.7263 36.0567C44.7328 36.0495 44.7357 36.0389 44.7316 36.0288L44.73 36.0247C44.4922 35.6208 44.2445 35.2044 43.8807 34.8878C43.4706 34.533 42.9715 34.3871 42.5414 34.4958C42.5283 34.4986 42.5139 34.5042 42.4997 34.5098L24.1266 34.4605L23.5353 34.4683L5.02812 34.4742C5.02521 34.4729 5.02324 34.4737 5.02033 34.4724C5.01341 34.4729 5.00936 34.4745 5.00437 34.4741L4.98561 34.4745L4.98353 34.4753C4.60013 34.4879 4.27035 34.7284 3.94001 34.9973ZM23.2199 42.9576C23.217 42.9563 23.2149 42.9572 23.2122 42.956C22.6545 42.859 22.0228 42.7489 21.4268 42.8808C21.0502 42.9635 20.6999 43.1416 20.3604 43.3107L20.2696 43.356C19.3621 43.8102 18.2844 44.2705 17.1752 44.2456C15.9912 44.2172 14.7557 43.6527 13.5033 42.5621C12.419 41.6188 11.6131 40.4012 11.1732 39.0393C11.1468 38.9558 11.1204 38.8723 11.0961 38.788C10.9857 38.4301 10.8732 38.0613 10.6593 37.7466C10.324 37.2591 9.78097 36.9567 9.30134 36.6881L5.86488 34.7709C5.69998 34.6787 5.52085 34.5803 5.32713 34.5228L23.543 34.5169L24.1295 34.5086L42.3622 34.557C42.1601 34.6438 41.9751 34.7731 41.8098 34.8924L38.6324 37.1692C38.1302 37.5293 37.8518 37.9396 37.4874 38.5247C37.3877 38.6839 37.2909 38.8558 37.2489 39.0462C37.2014 39.2526 37.2324 39.4775 37.3265 39.6235C36.9103 40.4873 36.395 41.3104 35.7942 42.0685C35.5225 42.4128 35.231 42.7485 34.9242 43.0644C34.8815 43.1117 34.8361 43.1579 34.7914 43.2059C34.5396 43.4696 34.2819 43.7426 33.9893 43.9285C33.2224 44.4142 32.2603 44.6903 31.3473 44.6819C30.6603 44.6759 29.9127 44.5012 29.1259 44.1636C28.8393 44.0396 28.5608 43.8771 28.2898 43.7211C27.8975 43.493 27.4908 43.259 27.0502 43.1347C26.025 42.8465 24.9491 42.9164 23.9109 42.9855C23.8345 42.9898 23.7556 42.9998 23.7044 43.0552C23.7044 43.0552 23.7031 43.0581 23.7012 43.0588L23.2199 42.9576Z" fill="#E4E5EA"/>
<g clip-path="url(#clip2_601_27241)">
<path d="M24.3656 51.1794L24.3656 30.3474C24.3656 30.2752 24.4258 30.2158 24.4989 30.2158C24.5721 30.2158 24.6323 30.2752 24.6323 30.3474L24.6323 51.1794C24.6323 51.2516 24.5721 51.311 24.4989 51.311C24.4258 51.311 24.3656 51.2516 24.3656 51.1794Z" fill="#E4E5EA"/>
<path d="M24.7347 30.7468L25.4341 30.1191L25.4341 30.4659L25.4341 30.9442L24.7347 31.5718L24.7347 30.7468Z" fill="#E4E5EA"/>
<path d="M24.2656 30.7468L23.5662 30.1191L23.5662 30.4659L23.5662 30.9442L24.2656 31.5718L24.2656 30.7468Z" fill="#E4E5EA"/>
<path d="M24.7347 31.8542L25.4341 31.2266L25.4341 31.5733L25.4341 32.0532L24.7347 32.6792L24.7347 31.8542Z" fill="#E4E5EA"/>
<path d="M24.2656 31.8542L23.5662 31.2266L23.5662 31.5733L23.5662 32.0532L24.2656 32.6792L24.2656 31.8542Z" fill="#E4E5EA"/>
<path d="M24.7347 32.9616L25.4341 32.334L25.4341 32.6823L25.4341 33.1606L24.7347 33.7867L24.7347 32.9616Z" fill="#E4E5EA"/>
<path d="M24.2656 32.9616L23.5662 32.334L23.5662 32.6823L23.5662 33.1606L24.2656 33.7867L24.2656 32.9616Z" fill="#E4E5EA"/>
<path d="M25.1858 51.2912L24.4993 53.4855L23.8145 51.2912L24.4993 51.0937L25.1858 51.2912Z" fill="#E4E5EA"/>
</g>
<g clip-path="url(#clip3_601_27241)">
<path d="M28.7822 50.3082L18.2774 32.2672C18.241 32.2046 18.159 32.1829 18.0957 32.2192C18.0325 32.2554 18.0104 32.3366 18.0468 32.3991L28.5517 50.4402C28.5881 50.5027 28.67 50.5244 28.7333 50.4882C28.7966 50.4519 28.8186 50.3707 28.7822 50.3082Z" fill="#E4E5EA"/>
<path d="M18.1598 32.7965L17.2373 32.5996L17.4122 32.9L17.6535 33.3144L18.576 33.5114L18.1598 32.7965Z" fill="#E4E5EA"/>
<path d="M18.5661 32.5643L18.8554 31.6737L19.0303 31.9741L19.2716 32.3885L18.9824 33.2791L18.5661 32.5643Z" fill="#E4E5EA"/>
<path d="M18.7181 33.7555L17.7957 33.5586L17.9706 33.859L18.2127 34.2748L19.1344 34.4703L18.7181 33.7555Z" fill="#E4E5EA"/>
<path d="M19.1247 33.5233L19.414 32.6327L19.5889 32.933L19.831 33.3489L19.541 34.2381L19.1247 33.5233Z" fill="#E4E5EA"/>
<path d="M19.2767 34.7145L18.3542 34.5176L18.53 34.8194L18.7713 35.2338L19.693 35.4293L19.2767 34.7145Z" fill="#E4E5EA"/>
<path d="M19.6833 34.4822L19.9726 33.5916L20.1483 33.8934L20.3896 34.3079L20.0995 35.1971L19.6833 34.4822Z" fill="#E4E5EA"/>
<path d="M28.1288 50.8126L29.8298 52.3724L29.3165 50.1327L28.6238 50.3013L28.1288 50.8126Z" fill="#E4E5EA"/>
</g>
<g clip-path="url(#clip4_601_27241)">
<path d="M20.2385 50.3082L30.7434 32.2672C30.7798 32.2046 30.8617 32.1829 30.925 32.2192C30.9883 32.2554 31.0103 32.3366 30.9739 32.3991L20.4691 50.4402C20.4327 50.5027 20.3507 50.5244 20.2875 50.4882C20.2242 50.4519 20.2021 50.3707 20.2385 50.3082Z" fill="#E4E5EA"/>
<path d="M30.861 32.7965L31.7834 32.5996L31.6085 32.9L31.3672 33.3144L30.4447 33.5114L30.861 32.7965Z" fill="#E4E5EA"/>
<path d="M30.4544 32.5643L30.1651 31.6737L29.9902 31.9741L29.7489 32.3885L30.0382 33.2791L30.4544 32.5643Z" fill="#E4E5EA"/>
<path d="M30.3026 33.7555L31.2251 33.5586L31.0502 33.859L30.8081 34.2748L29.8864 34.4703L30.3026 33.7555Z" fill="#E4E5EA"/>
<path d="M29.896 33.5233L29.6068 32.6327L29.4319 32.933L29.1897 33.3489L29.4798 34.2381L29.896 33.5233Z" fill="#E4E5EA"/>
<path d="M29.744 34.7145L30.6665 34.5176L30.4908 34.8194L30.2495 35.2338L29.3278 35.4293L29.744 34.7145Z" fill="#E4E5EA"/>
<path d="M29.3377 34.4822L29.0484 33.5916L28.8727 33.8934L28.6314 34.3079L28.9215 35.1971L29.3377 34.4822Z" fill="#E4E5EA"/>
<path d="M20.8919 50.8126L19.191 52.3724L19.7043 50.1327L20.3969 50.3013L20.8919 50.8126Z" fill="#E4E5EA"/>
</g>
<mask id="path-34-inside-3_601_27241" fill="white">
<path fill-rule="evenodd" clip-rule="evenodd" d="M0 0V44.0917C0 51.2231 5.93345 56.9221 13.059 56.6347L16.7144 56.4873C19.7181 56.3661 22.6032 57.6678 24.5 60C26.3968 57.6678 29.2819 56.3661 32.2856 56.4873L35.941 56.6347C43.0666 56.9221 49 51.2231 49 44.0917V0H24.5H0Z"/>
</mask>
<path d="M0 0V-1.77804H-1.77804V0H0ZM13.059 56.6347L13.1307 58.4113H13.1307L13.059 56.6347ZM16.7144 56.4873L16.6427 54.7107H16.6427L16.7144 56.4873ZM24.5 60L23.1206 61.1219L24.5 62.8179L25.8794 61.1219L24.5 60ZM32.2856 56.4873L32.3573 54.7107L32.2856 56.4873ZM35.941 56.6347L35.8693 58.4113L35.941 56.6347ZM49 0H50.778V-1.77804H49V0ZM1.77804 44.0917V0H-1.77804V44.0917H1.77804ZM12.9874 54.8581C6.87107 55.1048 1.77804 50.213 1.77804 44.0917H-1.77804C-1.77804 52.2332 4.99583 58.7394 13.1307 58.4113L12.9874 54.8581ZM16.6427 54.7107L12.9874 54.8581L13.1307 58.4113L16.786 58.2639L16.6427 54.7107ZM25.8794 58.8781C23.6291 56.1113 20.2063 54.567 16.6427 54.7107L16.786 58.2639C19.2299 58.1653 21.5773 59.2244 23.1206 61.1219L25.8794 58.8781ZM25.8794 61.1219C27.4227 59.2244 29.7701 58.1653 32.214 58.2639L32.3573 54.7107C28.7937 54.567 25.3709 56.1113 23.1206 58.8781L25.8794 61.1219ZM32.214 58.2639L35.8693 58.4113L36.0126 54.8581L32.3573 54.7107L32.214 58.2639ZM35.8693 58.4113C44.0042 58.7394 50.778 52.2332 50.778 44.0917H47.222C47.222 50.213 42.1289 55.1048 36.0126 54.8581L35.8693 58.4113ZM50.778 44.0917V0H47.222V44.0917H50.778ZM49 -1.77804H24.5V1.77804H49V-1.77804ZM0 1.77804H24.5V-1.77804H0V1.77804Z" fill="#202022" mask="url(#path-34-inside-3_601_27241)"/>
<defs>
<clipPath id="clip0_601_27241">
<rect width="32.7238" height="9.0416" fill="white" transform="matrix(0.879579 -0.475753 0.481803 0.87628 5.78589 18.5527)"/>
</clipPath>
<clipPath id="clip1_601_27241">
<rect width="32.7239" height="9.0416" fill="white" transform="matrix(-0.879637 -0.475645 -0.481912 0.876219 43.2678 18.5527)"/>
</clipPath>
<clipPath id="clip2_601_27241">
<rect width="23.3665" height="1.86784" fill="white" transform="translate(25.4341 30.1191) rotate(90)"/>
</clipPath>
<clipPath id="clip3_601_27241">
<rect width="23.4165" height="1.86445" fill="white" transform="matrix(0.503188 0.864177 0.867854 -0.496819 17.2373 32.5996)"/>
</clipPath>
<clipPath id="clip4_601_27241">
<rect width="23.4165" height="1.86445" fill="white" transform="matrix(-0.503188 0.864177 -0.867854 -0.496819 31.7834 32.5996)"/>
</clipPath>
</defs>
</svg>
