<svg width="97" height="120" viewBox="0 0 97 120" fill="none" xmlns="http://www.w3.org/2000/svg">
<mask id="path-1-inside-1_287_42" fill="white">
<path fill-rule="evenodd" clip-rule="evenodd" d="M0 0V88.5143C0 102.595 11.7183 113.845 25.7871 113.272L33.0291 112.977C39.0078 112.733 44.7478 115.339 48.5 120C52.2522 115.339 57.9922 112.733 63.9709 112.977L71.2129 113.272C85.2817 113.845 97 102.595 97 88.5143V0H48.5H0Z"/>
</mask>
<path fill-rule="evenodd" clip-rule="evenodd" d="M0 0V88.5143C0 102.595 11.7183 113.845 25.7871 113.272L33.0291 112.977C39.0078 112.733 44.7478 115.339 48.5 120C52.2522 115.339 57.9922 112.733 63.9709 112.977L71.2129 113.272C85.2817 113.845 97 102.595 97 88.5143V0H48.5H0Z" fill="#202022"/>
<path d="M0 0V-2H-2V0H0ZM25.7871 113.272L25.7056 111.274H25.7056L25.7871 113.272ZM33.0291 112.977L33.1105 114.975H33.1105L33.0291 112.977ZM48.5 120L46.9421 121.254L48.5 123.189L50.0579 121.254L48.5 120ZM63.9709 112.977L63.8895 114.975H63.8895L63.9709 112.977ZM71.2129 113.272L71.2944 111.274L71.2129 113.272ZM97 0H99V-2H97V0ZM2 88.5143V0H-2V88.5143H2ZM25.7056 111.274C12.7725 111.801 2 101.458 2 88.5143H-2C-2 103.731 10.6642 115.89 25.8685 115.27L25.7056 111.274ZM32.9477 110.979L25.7056 111.274L25.8685 115.27L33.1105 114.975L32.9477 110.979ZM50.0579 118.746C45.9081 113.591 39.5598 110.709 32.9477 110.979L33.1105 114.975C38.4557 114.757 43.5875 117.087 46.9421 121.254L50.0579 118.746ZM50.0579 121.254C53.4125 117.087 58.5443 114.757 63.8895 114.975L64.0523 110.979C57.4402 110.709 51.0919 113.591 46.9421 118.746L50.0579 121.254ZM63.8895 114.975L71.1315 115.27L71.2944 111.274L64.0523 110.979L63.8895 114.975ZM71.1315 115.27C86.3358 115.89 99 103.731 99 88.5143H95C95 101.458 84.2275 111.801 71.2944 111.274L71.1315 115.27ZM99 88.5143V0H95V88.5143H99ZM97 -2H48.5V2H97V-2ZM0 2H48.5V-2H0V2Z" fill="#E4E5EA" mask="url(#path-1-inside-1_287_42)"/>
<mask id="mask0_287_42" style="mask-type:alpha" maskUnits="userSpaceOnUse" x="0" y="0" width="97" height="120">
<mask id="path-3-inside-2_287_42" fill="white">
<path fill-rule="evenodd" clip-rule="evenodd" d="M0 0V88.5143C0 102.595 11.7183 113.845 25.7871 113.272L33.0291 112.977C39.0078 112.733 44.7478 115.339 48.5 120C52.2522 115.339 57.9922 112.733 63.9709 112.977L71.2129 113.272C85.2817 113.845 97 102.595 97 88.5143V0H48.5H0Z"/>
</mask>
<path fill-rule="evenodd" clip-rule="evenodd" d="M0 0V88.5143C0 102.595 11.7183 113.845 25.7871 113.272L33.0291 112.977C39.0078 112.733 44.7478 115.339 48.5 120C52.2522 115.339 57.9922 112.733 63.9709 112.977L71.2129 113.272C85.2817 113.845 97 102.595 97 88.5143V0H48.5H0Z" fill="#C6CCD8"/>
<path d="M0 0V-2H-2V0H0ZM25.7871 113.272L25.7056 111.274H25.7056L25.7871 113.272ZM33.0291 112.977L33.1105 114.975H33.1105L33.0291 112.977ZM48.5 120L46.9421 121.254L48.5 123.189L50.0579 121.254L48.5 120ZM63.9709 112.977L63.8895 114.975H63.8895L63.9709 112.977ZM71.2129 113.272L71.2944 111.274L71.2129 113.272ZM97 0H99V-2H97V0ZM2 88.5143V0H-2V88.5143H2ZM25.7056 111.274C12.7725 111.801 2 101.458 2 88.5143H-2C-2 103.731 10.6642 115.89 25.8685 115.27L25.7056 111.274ZM32.9477 110.979L25.7056 111.274L25.8685 115.27L33.1105 114.975L32.9477 110.979ZM50.0579 118.746C45.9081 113.591 39.5598 110.709 32.9477 110.979L33.1105 114.975C38.4557 114.757 43.5875 117.087 46.9421 121.254L50.0579 118.746ZM50.0579 121.254C53.4125 117.087 58.5443 114.757 63.8895 114.975L64.0523 110.979C57.4402 110.709 51.0919 113.591 46.9421 118.746L50.0579 121.254ZM63.8895 114.975L71.1315 115.27L71.2944 111.274L64.0523 110.979L63.8895 114.975ZM71.1315 115.27C86.3358 115.89 99 103.731 99 88.5143H95C95 101.458 84.2275 111.801 71.2944 111.274L71.1315 115.27ZM99 88.5143V0H95V88.5143H99ZM97 -2H48.5V2H97V-2ZM0 2H48.5V-2H0V2Z" fill="#202022" mask="url(#path-3-inside-2_287_42)"/>
</mask>
<g mask="url(#mask0_287_42)">
<rect x="0.2146" y="56.5593" width="96.8183" height="60.2151" fill="#E4E5EA"/>
</g>
<path d="M0.238525 56.5933H96.9999" stroke="#E4E5EA" stroke-width="2"/>
<path d="M43.5136 37.0327C42.7434 36.6747 42.0503 36.3167 41.3958 35.9399C42.0503 36.3167 42.7434 36.6935 43.5136 37.0327Z" fill="#E4E5EA"/>
<path d="M66.2703 8.20766C66.2703 8.20766 66.174 8.16998 66.1355 8.20766L65.8082 8.39606L65.5772 8.26418C65.5772 8.26418 65.5001 8.24534 65.4616 8.26418C65.2306 8.37722 60.8795 10.7511 60.687 10.8641L60.4367 11.0148L59.397 9.2627C59.243 8.96126 58.9542 8.81054 58.6462 8.94242C58.1263 9.14966 58.2804 9.88442 58.2804 9.88442L58.6654 11.6742C58.7039 11.7872 58.7617 11.9003 58.8194 11.9945L54.2951 14.7263C54.1795 14.5756 53.8907 14.2176 53.602 13.8596C53.2939 13.5017 53.0436 13.6336 52.2928 14.0292L52.158 14.1046C51.3494 14.519 48.0764 16.29 47.6336 16.5161C47.4988 16.4784 47.1908 16.4219 46.825 16.6291C46.0934 17.0247 40.6834 20.0203 40.6834 20.0203C40.6641 20.0203 40.6449 20.0391 40.6449 20.058V20.0956C40.6064 20.0391 40.5486 20.0203 40.4908 20.058L40.1635 20.2464C40.1635 20.2464 40.0865 20.3406 40.125 20.3971L40.202 20.5478C40.202 20.5478 40.0288 20.3782 39.8555 20.3594C39.6437 20.3217 39.4127 20.3971 39.2009 20.5855C39.1046 20.642 39.0084 20.642 38.9121 20.5855C38.6811 20.4913 38.4693 20.5101 38.3153 20.7362L36.0435 22.0173C36.0435 22.0173 35.8894 22.0173 35.7932 22.0738C35.7162 22.1304 35.6969 22.168 35.6584 22.2246L34.2144 23.0535L34.33 23.2419L35.6777 22.4883C35.6777 22.4883 35.6777 22.5448 35.6969 22.5825C35.3504 22.7709 35.0808 22.9405 35.0808 22.9405C35.0616 22.9405 35.0423 22.9782 35.0231 23.0158C35.0231 23.0535 35.0231 23.0724 35.0231 23.11L35.1771 23.3361L29.9788 26.6143L23.1634 30.4953C22.8938 30.646 22.7013 30.9098 22.6435 31.2112L22.143 33.6604C22.0852 33.943 22.143 34.2256 22.3163 34.4517L23.1056 35.5821C22.3548 35.0545 21.7194 34.1691 21.7194 34.1691C21.6809 34.1125 21.6232 34.1125 21.5654 34.1314L20.6413 34.6589C20.6413 34.6589 20.468 34.7719 20.4102 34.8473C20.1599 35.1111 19.2551 35.9965 17.9651 36.7878C17.0603 37.3342 16.4827 37.5226 16.1554 37.5602C15.8666 37.5979 15.6356 37.6733 15.4238 37.7863L7.47239 42.2891C7.20285 42.4398 7.02958 42.6847 6.95257 42.9861C6.89481 43.2687 6.95257 43.5702 7.12584 43.8151L7.43389 44.2484C8.31951 45.4918 9.24364 46.7541 9.80197 48.2802C9.97525 48.5816 10.3025 48.7888 10.6491 48.8265C10.8609 48.8453 11.0727 48.7888 11.2652 48.6946C11.4 48.6193 11.5155 48.5251 11.631 48.3932C12.4974 47.357 18.3694 40.9326 24.2223 36.4864L24.3763 36.7313C24.3763 36.7313 24.6266 37.2023 24.7999 37.2211C24.9539 37.2211 25.3197 37.4472 25.4352 38.0124C25.57 38.5776 26.3401 41.4601 26.3401 41.4601C26.3401 41.4601 26.5133 42.8919 27.1294 42.7977C27.7455 42.7035 28.8044 42.5717 29.382 42.0818C29.9788 41.592 29.4398 41.2152 29.4398 41.2152C29.4398 41.2152 29.1125 41.1021 28.9584 40.6123C28.8044 40.1225 28.1498 36.995 28.1498 36.995C28.1498 36.995 28.0151 36.411 28.4386 36.1096C28.5349 35.9965 28.5541 35.8458 28.4964 35.6763L28.6119 35.8458C28.7274 36.0154 28.9007 36.1284 29.0932 36.1661C29.2857 36.2038 29.4783 36.1661 29.6323 36.0907C29.6323 36.0907 29.6515 36.0907 29.6708 36.0719L31.9811 34.6212C32.2699 34.4328 32.3854 34.0937 32.2892 33.7734C32.3469 33.7734 32.4047 33.7546 32.4432 33.7169L32.9245 33.4531L33.3096 34.3386C33.3096 34.3386 33.3288 34.3763 33.3481 34.3763C33.3481 34.3763 33.3866 34.3763 33.4058 34.3763C33.4058 34.3763 33.4443 34.3198 33.4443 34.3009L33.0978 32.9821C33.0978 32.9821 33.0978 32.9633 33.0978 32.9445L32.578 32.059C33.2518 32.4735 34.2722 33.2082 35.2156 34.2256C36.7751 35.9212 40.202 38.0689 42.2621 39.237C42.7627 39.5196 42.9744 40.179 43.321 39.5384C43.8216 38.6153 44.8227 36.6371 45.0537 35.827C45.304 35.0357 44.6687 35.2053 44.3991 35.1299C44.1489 35.0545 40.202 33.1517 36.7751 29.0634L34.0027 30.1562L36.5055 28.7432L39.817 26.6519C39.9133 26.7085 40.125 26.7838 40.4138 26.7273C40.8951 26.6331 41.3765 26.2375 41.8385 25.5404C42.1273 25.1071 42.6086 24.8245 44.0333 23.9578C44.4376 23.7129 44.9382 23.4303 45.5158 23.0724L49.8284 20.642C49.8284 20.642 49.9054 20.5666 49.8862 20.5101L49.5781 19.5304L50.0594 19.2667C50.0594 19.2667 50.1172 19.1913 50.1172 19.1537V19.116L50.6948 18.7769C50.7525 18.7392 50.7718 18.6827 50.7525 18.6261L53.7175 16.9494L53.7752 17.0624C53.7752 17.0624 53.8907 17.1378 53.9485 17.1001L54.5068 16.7987C54.5068 16.7987 54.5838 16.6856 54.5453 16.6291L55.3732 16.1769L55.6812 16.7045C55.6812 16.7045 55.7968 16.7798 55.8545 16.7421L56.6246 16.3088C56.6246 16.3088 56.7016 16.1958 56.6631 16.1393L56.2588 15.4422L59.3393 13.7089L59.7436 14.3872C59.7436 14.3872 59.7821 14.4248 59.8206 14.4437C59.8591 14.4625 59.8783 14.4437 59.9169 14.4437L60.6099 14.0292C60.6099 14.0292 60.687 13.935 60.6485 13.8785L60.3212 13.2568L60.6485 13.0684L60.7255 13.1814C60.7255 13.1814 60.764 13.2191 60.8025 13.2379C60.841 13.2379 60.8602 13.2379 60.8987 13.2379L61.3416 12.9742C61.3416 12.9742 61.4186 12.88 61.3801 12.8234L61.3223 12.7104L61.5918 12.5597C61.7459 12.5974 62.1502 12.6727 62.5545 12.4278C63.3438 11.9756 66.5783 10.1482 66.5975 10.1482C66.5975 10.1482 66.6553 10.0917 66.6553 10.0351V9.84674C66.6553 9.67718 66.6168 9.43226 66.5783 9.18734C66.6168 9.3569 66.6746 9.5453 66.6938 9.65834L66.9441 9.50762C66.9441 9.50762 67.0019 9.4511 67.0019 9.39458C67.0019 9.37574 66.9634 8.75402 66.3473 8.28302L66.2703 8.20766ZM8.62756 42.7977C8.41578 42.9296 8.39652 43.1745 8.49279 43.4195L9.12813 45.2281L7.97296 43.5137C7.83819 43.3064 7.89595 43.0238 8.10773 42.8919L13.5755 39.4442C13.5755 39.4442 13.7295 39.3689 13.768 39.3689L8.62756 42.7977ZM36.1205 29.7605L36.3708 29.6475C36.3708 29.6475 36.39 29.6475 36.4093 29.6663C36.4285 29.704 38.5271 33.3589 44.0911 35.8835C44.0911 35.8835 44.0911 35.8835 44.1104 35.9023C44.1296 35.9212 44.1104 35.9212 44.1104 35.94L43.9563 36.1849C43.9563 36.1849 43.9371 36.1849 43.9178 36.1849C43.8601 36.1661 38.5656 33.9618 36.1012 29.7794C36.1012 29.7794 36.1012 29.7605 36.1012 29.7417C36.1012 29.7228 36.1012 29.7417 36.1205 29.7228V29.7605ZM35.4851 30.0431L35.7354 29.9301C35.7354 29.9301 35.7547 29.9301 35.7739 29.9489C35.7932 29.9866 37.988 33.8111 43.7831 36.4487C43.7831 36.4487 43.7831 36.4487 43.8023 36.4675C43.8023 36.4675 43.8023 36.4864 43.8023 36.5052L43.6483 36.769C43.6483 36.769 43.629 36.769 43.6098 36.769C43.552 36.7501 38.0265 34.4517 35.4851 30.0808C35.4851 30.0808 35.4851 30.062 35.4851 30.0431C35.4851 30.0431 35.4851 30.0431 35.5044 30.0243L35.4851 30.0431ZM34.8883 30.288L35.1578 30.175C35.1578 30.175 35.1771 30.175 35.1963 30.1938C35.2156 30.2315 37.4874 34.2444 43.5135 37.0139C43.5135 37.0139 43.5135 37.0139 43.5328 37.0327C43.5328 37.0327 43.5328 37.0516 43.5328 37.0704L43.3595 37.353C43.3595 37.353 43.3402 37.353 43.321 37.353C43.2632 37.3342 37.5259 34.9227 34.869 30.3446C34.869 30.3446 34.869 30.3257 34.869 30.3069C34.869 30.3069 34.869 30.3069 34.8883 30.288ZM31.8271 34.3951L29.5745 35.827C29.4398 35.9023 29.2857 35.94 29.1317 35.9023C28.9777 35.8647 28.8429 35.7893 28.7659 35.6574L27.784 34.1691L27.8803 34.1125C27.8803 34.1125 27.9573 34.1502 28.0151 34.1125L28.4964 33.8299L28.8044 34.3575C28.8044 34.3575 29.2857 35.1111 30.1906 35.0545C30.1906 35.0545 29.6708 34.9227 29.0932 34.0372C28.9584 33.8299 28.9392 33.6792 28.9584 33.5662L29.2472 33.4155C29.2472 33.4155 29.3242 33.3213 29.2857 33.2647C29.2857 33.2647 29.2665 33.2647 29.2472 33.2459L31.0185 32.1343L31.134 32.3039C31.134 32.3039 31.134 32.3227 31.134 32.3416L31.8271 33.5285C31.8271 33.5285 31.9426 33.6415 32.0004 33.6792C32.1352 33.943 32.0581 34.2444 31.8079 34.414L31.8271 34.3951ZM33.1748 28.0838L31.8464 28.8562C31.8464 28.762 31.7886 28.6866 31.7501 28.5924C31.6923 28.5171 31.6346 28.4417 31.5576 28.3852C31.5576 28.3852 31.4998 28.3287 31.4613 28.3287C31.4613 28.3287 31.4421 28.3287 31.4228 28.3098C31.4035 28.3098 31.365 28.2722 31.3265 28.2722C31.3265 28.2722 31.3073 28.2722 31.288 28.2722C31.2495 28.2722 31.1918 28.2533 31.1533 28.2345C31.1148 28.2345 31.0955 28.2345 31.0763 28.2345C31.057 28.2345 31.0377 28.2345 31.0185 28.2345C30.98 28.2345 30.9607 28.2345 30.9222 28.2345C30.9222 28.2345 30.8837 28.2345 30.8645 28.2345C30.826 28.2345 30.8067 28.2345 30.7682 28.2533H30.7297C30.6912 28.2533 30.6334 28.291 30.5949 28.3098C30.5564 28.3287 30.5179 28.3664 30.4602 28.404C30.4602 28.404 30.4409 28.4229 30.4217 28.4417C30.4024 28.4606 30.3832 28.4794 30.3446 28.5171C30.3446 28.5171 30.3254 28.5548 30.3061 28.5548C30.3061 28.5736 30.2676 28.6113 30.2676 28.6301C30.2676 28.6301 30.2484 28.6678 30.2291 28.6866C30.2291 28.7055 30.2099 28.7432 30.2099 28.762C30.2099 28.7997 30.1906 28.8562 30.1714 28.8939V28.9316C30.1714 28.9692 30.1714 28.9881 30.1714 29.0258C30.1714 29.0258 30.1714 29.0446 30.1714 29.0634C30.1714 29.1011 30.1714 29.1388 30.1714 29.1576C30.1714 29.2518 30.2291 29.346 30.2676 29.4214C30.3254 29.4968 30.3832 29.5721 30.4602 29.6286L27.0139 31.588C26.8792 31.6634 26.7059 31.6257 26.6289 31.4938C26.5519 31.3619 26.5904 31.1924 26.7251 31.117L30.1329 29.1765C29.9018 28.7808 30.0366 28.2722 30.4409 28.0461C30.8452 27.82 31.365 27.9519 31.5961 28.3287L32.886 27.5939C33.0208 27.5186 33.1941 27.5563 33.2711 27.6881C33.3481 27.82 33.3096 27.9896 33.1748 28.0649V28.0838ZM36.313 22.1869C36.313 22.1869 36.2937 22.168 36.2745 22.1492L37.5452 21.4333L36.313 22.1869ZM38.6041 20.9434C38.6041 20.9434 38.4886 20.9434 38.45 20.9058C38.4115 20.8492 38.45 20.7927 38.4886 20.755C38.5463 20.7174 38.6041 20.755 38.6426 20.7927C38.6811 20.8492 38.6426 20.9058 38.6041 20.9434ZM51.7152 16.5161C50.9066 17.0059 49.0968 18.0044 49.0968 18.0044L48.7118 17.9667L40.8951 22.1869L51.4264 15.9885C51.4264 15.9885 52.7356 15.1219 52.9089 15.4045C53.0629 15.6683 52.5238 16.0451 51.7152 16.5349V16.5161ZM59.9554 11.1467L59.3008 11.5235C59.3008 11.5235 59.1275 11.5235 59.0697 11.467L58.8579 11.109C58.8579 11.109 58.858 10.9395 58.9157 10.8829L59.5703 10.5061C59.5703 10.5061 59.7436 10.5061 59.8013 10.5627L60.0131 10.9206C60.0131 10.9206 60.0131 11.0902 59.9554 11.1467ZM66.0777 9.80906L65.7697 9.97862C65.7697 9.97862 65.5772 9.97862 65.5387 9.9221L65.0766 9.14966C65.0766 9.14966 65.0766 8.96126 65.1343 8.92358L65.4424 8.75402C65.4424 8.75402 65.6349 8.75402 65.6734 8.81054L66.1355 9.58298C66.1355 9.58298 66.1355 9.77138 66.0777 9.80906Z" fill="#E4E5EA"/>
<path d="M53.4866 37.0329C54.2567 36.6749 54.9498 36.317 55.6044 35.9402C54.9498 36.317 54.2567 36.6938 53.4866 37.0329Z" fill="#E4E5EA"/>
<path d="M30.0752 9.33815C30.0752 9.33815 30.0944 9.43235 30.133 9.45119L30.3832 9.60191C30.4025 9.48887 30.4602 9.30047 30.4988 9.13091C30.4602 9.35699 30.4217 9.62075 30.4217 9.79031V9.94103V9.97871C30.4217 10.0164 30.441 10.0541 30.4795 10.0917C30.4795 10.0917 33.7332 11.9192 34.5226 12.3902C34.9461 12.6163 35.3504 12.5598 35.4852 12.5221L35.7548 12.6728L35.697 12.7859C35.697 12.7859 35.697 12.9177 35.7355 12.9366L36.1783 13.2003C36.1783 13.2003 36.2361 13.2192 36.2746 13.2003C36.3131 13.2003 36.3323 13.1815 36.3516 13.1438L36.4286 13.0308L36.7559 13.2192L36.4286 13.8409C36.4286 13.8409 36.4286 13.9539 36.4671 13.9916L37.1602 14.4061C37.1602 14.4061 37.218 14.4249 37.2565 14.4061C37.295 14.3872 37.3142 14.3872 37.3335 14.3496L37.7378 13.6713L40.8182 15.4046L40.4139 16.1017C40.4139 16.1017 40.4139 16.2336 40.4524 16.2712L41.2225 16.7046C41.2225 16.7046 41.3573 16.7046 41.3958 16.6669L41.7038 16.1394L42.5317 16.5727C42.5317 16.5727 42.5317 16.7046 42.5702 16.7422L43.1285 17.0437C43.1285 17.0437 43.2633 17.0437 43.3018 17.006L43.3596 16.893L46.3245 18.5697C46.3245 18.5697 46.3245 18.6827 46.3823 18.7204L46.9598 19.0595V19.0972C46.9598 19.0972 46.9598 19.1914 47.0176 19.2103L47.4989 19.474L47.1909 20.4537C47.1909 20.4537 47.1909 20.5667 47.2486 20.5856L51.5613 23.0159C52.1388 23.3739 52.6394 23.6565 53.0437 23.9014C54.4684 24.7492 54.9497 25.0506 55.2385 25.484C55.7006 26.181 56.1819 26.5767 56.6632 26.6709C56.952 26.7274 57.1638 26.652 57.2601 26.5955L60.5715 28.6867L63.0744 30.0997L60.302 29.007C56.8943 33.0953 52.9474 34.9981 52.6779 35.0735C52.4084 35.1488 51.773 34.9793 52.0233 35.7705C52.2736 36.5807 53.2555 38.5588 53.7561 39.482C54.1026 40.1226 54.3144 39.4632 54.815 39.1806C56.875 38.0125 60.302 35.8647 61.8615 34.1691C62.8049 33.1518 63.8252 32.417 64.4991 32.0026L63.9793 32.888C63.9793 32.888 63.9793 32.9069 63.9793 32.9257L63.6327 34.2445C63.6327 34.2445 63.6327 34.301 63.6712 34.3199C63.6712 34.3199 63.7097 34.3199 63.729 34.3199C63.729 34.3199 63.7675 34.301 63.7675 34.2822L64.1525 33.3967L64.6339 33.6605C64.6339 33.6605 64.7494 33.6982 64.7879 33.717C64.6916 34.0373 64.7879 34.3764 65.0959 34.5648L67.4063 36.0155C67.4063 36.0155 67.4255 36.0155 67.4448 36.0343C67.618 36.1285 67.8106 36.1662 67.9838 36.1097C68.1764 36.072 68.3496 35.9589 68.4652 35.7894L68.5807 35.6198C68.5229 35.8082 68.5422 35.9589 68.6384 36.0531C69.062 36.3734 68.9272 36.9386 68.9272 36.9386C68.9272 36.9386 68.2534 40.066 68.1186 40.5559C67.9838 41.0457 67.6373 41.1588 67.6373 41.1588C67.6373 41.1588 67.0982 41.5356 67.695 42.0254C68.2919 42.5152 69.3315 42.6471 69.9476 42.7413C70.5637 42.8355 70.737 41.4037 70.737 41.4037C70.737 41.4037 71.5263 38.5023 71.6419 37.956C71.7766 37.3908 72.1232 37.1835 72.2772 37.1647C72.4505 37.1647 72.7008 36.6749 72.7008 36.6749L72.8548 36.4299C78.7076 40.895 84.5797 47.3006 85.4461 48.3368C85.5616 48.4686 85.6771 48.5628 85.8119 48.6382C86.0044 48.7512 86.2162 48.7889 86.428 48.7701C86.7745 48.7324 87.0826 48.544 87.2751 48.2237C87.8142 46.7165 88.7383 45.4354 89.6432 44.192L89.9512 43.7587C90.1245 43.5137 90.1822 43.2311 90.1245 42.9297C90.0667 42.6471 89.8742 42.3834 89.6047 42.2326L81.6725 37.7111C81.48 37.598 81.2297 37.5227 80.9409 37.485C80.6136 37.4473 80.0361 37.2589 79.1312 36.7125C77.8412 35.9213 76.9364 35.0358 76.6861 34.772C76.6091 34.6967 76.5321 34.6401 76.455 34.5836L75.5309 34.0561C75.5309 34.0561 75.4154 34.0561 75.3769 34.0938C75.3769 34.0938 74.7416 34.9793 73.9907 35.5068L74.7801 34.3764C74.9341 34.1503 75.0111 33.8489 74.9533 33.5851L74.4528 31.1359C74.395 30.8345 74.2025 30.5707 73.9329 30.42L67.1175 26.539L61.9192 23.2608L62.0732 23.0348C62.0732 23.0348 62.0925 22.9782 62.0732 22.9406C62.0732 22.9029 62.054 22.884 62.0155 22.8652C62.0155 22.8652 61.746 22.6956 61.3994 22.5072C61.3994 22.4884 61.3994 22.4507 61.4187 22.413L62.7663 23.1666L62.8819 22.9782L61.4379 22.1493C61.4379 22.1493 61.3801 22.0362 61.3031 21.9986C61.2069 21.942 61.1299 21.9232 61.0529 21.942L58.781 20.6609C58.627 20.416 58.4152 20.416 58.1842 20.5102C58.0879 20.5479 57.9917 20.5479 57.8954 20.5102C57.6836 20.3218 57.4526 20.2465 57.2408 20.2841C57.0868 20.3218 56.9713 20.3972 56.8943 20.4725L56.9713 20.3218C57.0098 20.2653 56.9713 20.1899 56.9328 20.1711L56.6055 19.9827C56.6055 19.9827 56.4707 19.9827 56.4514 20.0204V19.9827C56.4514 19.9639 56.4322 19.945 56.4129 19.945C56.4129 19.945 50.9837 16.9495 50.2713 16.5538C49.9055 16.3466 49.5975 16.4031 49.4627 16.4408C49.0199 16.2147 45.7469 14.4626 44.9383 14.0293L44.8035 13.9539C44.0527 13.5583 43.7831 13.4264 43.4944 13.7844C43.1863 14.1423 42.9168 14.5003 42.8013 14.651L38.2769 11.9192C38.2769 11.9192 38.3924 11.712 38.4309 11.5989L38.8159 9.80915C38.8159 9.80915 38.97 9.07439 38.4501 8.86715C38.1421 8.73527 37.8726 8.88599 37.6993 9.18743L36.6596 10.9395L36.4093 10.7888C36.2168 10.6946 31.8657 8.30196 31.6347 8.18892C31.5962 8.17008 31.5577 8.18892 31.5192 8.18892L31.2881 8.3208L30.9608 8.1324C30.9608 8.1324 30.8646 8.11356 30.8261 8.1324C30.21 8.62223 30.1715 9.22511 30.1715 9.24395L30.0752 9.33815ZM83.232 39.3878C83.232 39.3878 83.3283 39.3878 83.4245 39.4632L88.8923 42.9109C89.1041 43.0427 89.1618 43.3253 89.0271 43.5326L87.8719 45.247L88.5073 43.4384C88.6035 43.1935 88.5843 42.9485 88.3725 42.8167L83.232 39.3878ZM60.8988 29.7983C60.8988 29.7983 60.8988 29.8171 60.8988 29.836C58.4345 34.0184 53.14 36.2039 53.0822 36.2415C53.0822 36.2415 53.063 36.2415 53.0437 36.2415L52.8897 35.9966C52.8897 35.9966 52.8897 35.9778 52.8897 35.9589C52.8897 35.9401 52.8897 35.9589 52.9089 35.9401C58.473 33.4156 60.5715 29.7606 60.5908 29.7229C60.5908 29.7229 60.61 29.7041 60.6293 29.7041L60.8796 29.8171C60.8796 29.8171 60.8796 29.8171 60.8988 29.836V29.7983ZM61.5342 30.0809C61.5342 30.0809 61.5342 30.0997 61.5342 30.1186C58.9736 34.4894 53.448 36.7879 53.4095 36.8067C53.4095 36.8067 53.3903 36.8067 53.371 36.8067L53.217 36.543C53.217 36.543 53.217 36.5241 53.217 36.5053C53.217 36.5053 53.217 36.5053 53.2362 36.4865C59.0313 33.8489 61.2261 30.0244 61.2454 29.9867C61.2454 29.9867 61.2646 29.9679 61.2839 29.9679L61.5342 30.0809C61.5342 30.0809 61.5342 30.0809 61.5534 30.0997L61.5342 30.0809ZM62.131 30.3258C62.131 30.3258 62.131 30.3447 62.131 30.3635C59.4741 34.9227 53.7368 37.3343 53.6791 37.3719C53.6791 37.3719 53.6598 37.3719 53.6405 37.3719L53.4673 37.0893C53.4673 37.0893 53.4673 37.0705 53.4673 37.0517C53.4673 37.0517 53.4673 37.0328 53.4865 37.0328C59.5126 34.2633 61.7845 30.2504 61.8037 30.2128C61.8037 30.2128 61.823 30.1939 61.8422 30.1939L62.1118 30.307C62.1118 30.307 62.1118 30.307 62.131 30.3258ZM64.9612 33.6793C64.9612 33.6793 65.0959 33.604 65.1344 33.5286L65.8275 32.3417C65.8275 32.3417 65.8275 32.3228 65.8275 32.304L65.943 32.1344L67.7143 33.246C67.7143 33.246 67.695 33.246 67.6758 33.2648C67.6373 33.3214 67.6758 33.3967 67.7143 33.4156L68.0031 33.5663C68.0031 33.6793 68.0031 33.83 67.8683 34.0373C67.2907 34.9227 66.7709 35.0546 66.7709 35.0546C67.6758 35.0923 68.1571 34.3575 68.1571 34.3575L68.4652 33.83L68.9465 34.1126C68.9465 34.1126 69.0427 34.1126 69.0812 34.1126L69.1775 34.1691L68.1956 35.6575C68.1186 35.7894 67.9838 35.8647 67.8298 35.9024C67.6758 35.9401 67.5218 35.9024 67.387 35.8271L65.1344 34.3952C64.8841 34.2445 64.8071 33.9242 64.9419 33.6605L64.9612 33.6793ZM63.7097 27.7071C63.7867 27.5752 63.96 27.5375 64.0948 27.6129L65.3847 28.3476C65.6158 27.952 66.1356 27.8201 66.5399 28.065C66.9442 28.2911 67.079 28.7998 66.8479 29.1954L70.2557 31.1359C70.3904 31.2113 70.4289 31.3808 70.3519 31.5127C70.2749 31.6446 70.1016 31.6823 69.9669 31.6069L66.5206 29.6476C66.5206 29.6476 66.6554 29.5157 66.7132 29.4403C66.7709 29.365 66.7902 29.2708 66.8094 29.1766C66.8094 29.1766 66.8094 29.1012 66.8094 29.0635C66.8094 29.0635 66.8094 29.0447 66.8094 29.0259C66.8094 28.9882 66.8094 28.9693 66.8094 28.9317V28.894C66.8094 28.8563 66.8094 28.7998 66.7709 28.7621C66.7709 28.7433 66.7709 28.7056 66.7517 28.6867C66.7517 28.6679 66.7324 28.6491 66.7132 28.6302C66.7132 28.6114 66.6747 28.5737 66.6747 28.5549C66.6747 28.5549 66.6554 28.5172 66.6361 28.5172C66.6169 28.4983 66.5976 28.4607 66.5591 28.4418C66.5591 28.4418 66.5399 28.423 66.5206 28.4041C66.4821 28.3665 66.4436 28.3476 66.3859 28.3099C66.3474 28.2911 66.2896 28.2723 66.2511 28.2534H66.2126C66.1741 28.2534 66.1356 28.2534 66.1163 28.2346C66.1163 28.2346 66.0778 28.2346 66.0586 28.2346C66.0201 28.2346 66.0008 28.2346 65.9623 28.2346C65.943 28.2346 65.9238 28.2346 65.9045 28.2346C65.8853 28.2346 65.8468 28.2346 65.8275 28.2346C65.789 28.2346 65.7313 28.2534 65.6928 28.2723C65.6928 28.2723 65.6735 28.2723 65.6543 28.2723C65.6157 28.2723 65.5965 28.3099 65.558 28.3099C65.558 28.3099 65.5387 28.3099 65.5195 28.3288C65.481 28.3288 65.4617 28.3665 65.4232 28.3853C65.4232 28.3853 65.2885 28.5172 65.2307 28.6114C65.1729 28.6867 65.1537 28.7809 65.1344 28.8751L63.806 28.1215C63.6712 28.0462 63.6327 27.8766 63.7097 27.7447V27.7071ZM59.4356 21.4334L60.7063 22.1493L60.6678 22.187L59.4356 21.4334ZM58.319 20.8117C58.319 20.8117 58.4152 20.7363 58.473 20.774C58.5307 20.8117 58.55 20.8682 58.5115 20.9247C58.473 20.9812 58.4152 21.0001 58.3575 20.9624C58.2997 20.9247 58.2805 20.8682 58.319 20.8117ZM44.0527 15.3858C44.2067 15.122 45.5351 15.9698 45.5351 15.9698L56.0664 22.1681L48.2498 17.948L47.8647 17.9857C47.8647 17.9857 46.0357 16.9872 45.2464 16.4973C44.4377 16.0075 43.8987 15.6495 44.0527 15.3669V15.3858ZM36.9292 10.9207L37.1409 10.5627C37.1409 10.5627 37.295 10.4497 37.372 10.5062L38.0266 10.883C38.0266 10.883 38.1421 11.0337 38.0843 11.1091L37.8726 11.4671C37.8726 11.4671 37.7185 11.5801 37.6415 11.5236L36.9869 11.1468C36.9869 11.1468 36.8714 10.9961 36.9292 10.9207ZM30.8068 9.58307L31.2689 8.81063C31.2689 8.81063 31.4229 8.69759 31.4999 8.75411L31.8079 8.92367C31.8079 8.92367 31.9235 9.07439 31.8657 9.14975L31.4036 9.92219C31.4036 9.92219 31.2496 10.0352 31.1726 9.97871L30.8646 9.80915C30.8646 9.80915 30.749 9.65843 30.8068 9.58307Z" fill="#E4E5EA"/>
<path d="M45.4893 96.4618C45.4882 96.4591 45.4858 96.457 45.482 96.4555L45.4781 96.457C45.4817 96.4586 45.4854 96.4602 45.4893 96.4618ZM7.79999 69.9931C7.18147 70.5024 6.54607 71.028 6.06349 71.6898C5.85096 71.9812 5.81233 72.2501 5.95442 72.4188C6.10935 72.5965 6.38033 72.5825 6.75782 72.3758C9.0273 71.1238 10.9397 70.7796 12.4394 71.3559C14.7611 72.2428 16.8952 73.9563 18.9682 76.5905C20.0285 77.9381 20.9794 79.3998 21.8973 80.8137C22.4988 81.7384 23.1157 82.6898 23.7652 83.605C25.0318 85.4007 27.0323 87.9704 29.779 89.5379C30.5506 89.9816 31.3694 90.3315 32.2153 90.5718C33.8721 91.048 35.5344 91.0897 37.0159 90.6872C37.2102 90.6334 37.4036 90.589 37.589 90.5481C38.1037 90.4275 38.5943 90.3165 39.0957 90.0321C39.3403 89.8924 39.5881 89.7373 39.827 89.5951C40.4072 89.2371 41.0114 88.8696 41.6622 88.6195C42.4834 88.3018 43.3931 88.1835 44.2866 88.2733C44.7502 88.3187 45.1765 88.4118 45.5676 88.5469C45.8142 88.6365 46.8009 88.7832 46.8009 88.7832C48.5573 88.8251 50.372 88.8723 52.1539 89.026C53.0355 89.0971 53.965 89.2058 54.7749 89.6153C55.2323 89.8465 55.6425 90.1711 56.0424 90.4813C56.3226 90.7031 56.6104 90.9312 56.9164 91.1238C58.4461 92.1058 60.4907 92.3664 62.6796 91.8557C63.7293 91.6064 64.8304 91.191 66.1513 90.5378C66.7189 90.2553 67.2803 89.9564 67.8011 89.6739C68.3113 89.3999 68.7054 88.9989 69.0547 88.6389C70.8368 86.8207 72.2398 84.6978 73.7592 82.3128C74.355 81.3806 74.8141 80.3524 75.2586 79.3582C75.809 78.1341 76.3747 76.8663 77.1923 75.7845C78.1511 74.515 79.5151 73.4033 81.3593 72.3912C83.4353 71.2541 85.1729 70.8714 86.6739 71.2264C87.3271 71.384 87.9503 71.6897 88.4737 72.1103C88.4939 72.1256 88.5215 72.1242 88.5402 72.112C88.5531 72.0975 88.5587 72.0764 88.5507 72.0562L88.5474 72.048C88.0767 71.2402 87.5865 70.4073 86.8662 69.7741C86.0545 69.0645 85.0664 68.7728 84.2149 68.9901C84.189 68.9957 84.1605 69.007 84.1324 69.0182L47.7613 68.9194L46.5906 68.9351L9.95399 68.9469C9.94823 68.9444 9.94433 68.9459 9.93857 68.9434C9.92488 68.9444 9.91686 68.9476 9.90697 68.9467L9.86984 68.9474L9.86572 68.9491C9.10676 68.9744 8.45391 69.4554 7.79999 69.9931ZM45.9663 85.9137C45.9606 85.9112 45.9564 85.9128 45.951 85.9105C44.847 85.7165 43.5965 85.4963 42.4166 85.7601C41.6712 85.9256 40.9777 86.2817 40.3056 86.6199L40.1258 86.7104C38.3295 87.619 36.1959 88.5396 34.0002 88.4897C31.6565 88.4329 29.2105 87.304 26.7315 85.1227C24.5849 83.236 22.9895 80.801 22.1188 78.0771C22.0665 77.9101 22.0142 77.7431 21.9662 77.5746C21.7475 76.8588 21.5249 76.1211 21.1014 75.4917C20.4377 74.5166 19.3627 73.9119 18.4132 73.3747L11.6104 69.5404C11.284 69.3559 10.9294 69.1592 10.5459 69.0442L46.6059 69.0323L47.7669 69.0158L83.8602 69.1126C83.4602 69.2861 83.094 69.5447 82.7668 69.7832L76.4768 74.3369C75.4827 75.057 74.9316 75.8777 74.2101 77.0479C74.0128 77.3662 73.8211 77.7102 73.738 78.0909C73.644 78.5038 73.7054 78.9536 73.8916 79.2456C73.0677 80.9731 72.0475 82.6192 70.8583 84.1356C70.3205 84.8242 69.7433 85.4956 69.136 86.1274C69.0515 86.2219 68.9616 86.3143 68.8732 86.4104C68.3746 86.9378 67.8646 87.4838 67.2854 87.8555C65.7672 88.8269 63.8626 89.3792 62.0552 89.3624C60.6952 89.3504 59.2152 89.0008 57.6577 88.3256C57.0904 88.0777 56.5391 87.7527 56.0026 87.4407C55.226 86.9846 54.421 86.5165 53.5488 86.2679C51.5191 85.6915 49.3894 85.8313 47.3342 85.9696C47.1829 85.9781 47.0268 85.9981 46.9254 86.1089C46.9254 86.1089 46.9229 86.1147 46.919 86.1162L45.9663 85.9137Z" fill="#202022"/>
<g clip-path="url(#clip0_287_42)">
<path d="M48.234 102.359L48.234 60.6949C48.234 60.5504 48.3531 60.4316 48.498 60.4316C48.6429 60.4316 48.762 60.5504 48.762 60.6949L48.762 102.359C48.762 102.503 48.6429 102.622 48.498 102.622C48.3531 102.622 48.234 102.503 48.234 102.359Z" fill="#202022"/>
<path d="M48.9644 61.4943L50.3494 60.239L50.3494 60.9324L50.3494 61.8891L48.9644 63.1444L48.9644 61.4943Z" fill="#202022"/>
<path d="M48.0356 61.4943L46.6507 60.239L46.6507 60.9324L46.6507 61.8891L48.0356 63.1444L48.0356 61.4943Z" fill="#202022"/>
<path d="M48.9644 63.7093L50.3494 62.4541L50.3494 63.1475L50.3494 64.1074L48.9644 65.3595L48.9644 63.7093Z" fill="#202022"/>
<path d="M48.0356 63.7093L46.6507 62.4541L46.6507 63.1475L46.6507 64.1074L48.0356 65.3595L48.0356 63.7093Z" fill="#202022"/>
<path d="M48.9644 65.9244L50.3494 64.6692L50.3494 65.3658L50.3494 66.3225L48.9644 67.5746L48.9644 65.9244Z" fill="#202022"/>
<path d="M48.0356 65.9244L46.6507 64.6692L46.6507 65.3658L46.6507 66.3225L48.0356 67.5746L48.0356 65.9244Z" fill="#202022"/>
<path d="M49.8577 102.584L48.4984 106.972L47.1423 102.584L48.4984 102.189L49.8577 102.584Z" fill="#202022"/>
</g>
<g clip-path="url(#clip1_287_42)">
<path d="M56.977 100.617L36.1818 64.5346C36.1097 64.4095 35.9474 64.3661 35.8222 64.4386C35.697 64.511 35.6533 64.6734 35.7254 64.7985L56.5206 100.881C56.5927 101.006 56.755 101.049 56.8802 100.977C57.0054 100.904 57.0491 100.742 56.977 100.617Z" fill="#202022"/>
<path d="M35.949 65.5923L34.123 65.199L34.4692 65.7995L34.9467 66.628L36.7726 67.0214L35.949 65.5923Z" fill="#202022"/>
<path d="M36.7532 65.1271L37.3261 63.3463L37.6722 63.9469L38.1497 64.7754L37.5768 66.5562L36.7532 65.1271Z" fill="#202022"/>
<path d="M37.0547 67.5108L35.2288 67.1174L35.5749 67.718L36.054 68.5493L37.8783 68.9398L37.0547 67.5108Z" fill="#202022"/>
<path d="M37.8589 67.0456L38.4319 65.2648L38.778 65.8653L39.2571 66.6966L38.6825 68.4746L37.8589 67.0456Z" fill="#202022"/>
<path d="M38.1602 69.429L36.3342 69.0356L36.6819 69.639L37.1594 70.4675L38.9838 70.8581L38.1602 69.429Z" fill="#202022"/>
<path d="M38.9644 68.9638L39.5373 67.183L39.885 67.7863L40.3625 68.6148L39.788 70.3928L38.9644 68.9638Z" fill="#202022"/>
<path d="M55.6837 101.624L59.0512 104.744L58.0352 100.264L56.6637 100.601L55.6837 101.624Z" fill="#202022"/>
</g>
<g clip-path="url(#clip2_287_42)">
<path d="M40.0645 100.617L60.8597 64.5346C60.9318 64.4095 61.0941 64.3661 61.2193 64.4386C61.3445 64.511 61.3882 64.6734 61.3161 64.7985L40.5209 100.881C40.4488 101.006 40.2865 101.049 40.1613 100.977C40.0361 100.904 39.9924 100.742 40.0645 100.617Z" fill="#202022"/>
<path d="M61.0925 65.5923L62.9185 65.199L62.5724 65.7995L62.0949 66.628L60.2689 67.0214L61.0925 65.5923Z" fill="#202022"/>
<path d="M60.2883 65.1271L59.7154 63.3463L59.3693 63.9469L58.8918 64.7754L59.4647 66.5562L60.2883 65.1271Z" fill="#202022"/>
<path d="M59.9868 67.5108L61.8127 67.1174L61.4666 67.718L60.9875 68.5493L59.1632 68.9398L59.9868 67.5108Z" fill="#202022"/>
<path d="M59.1826 67.0456L58.6097 65.2648L58.2635 65.8653L57.7844 66.6966L58.359 68.4746L59.1826 67.0456Z" fill="#202022"/>
<path d="M58.8813 69.429L60.7073 69.0356L60.3596 69.639L59.8821 70.4675L58.0577 70.8581L58.8813 69.429Z" fill="#202022"/>
<path d="M58.0771 68.9638L57.5042 67.183L57.1565 67.7863L56.679 68.6148L57.2535 70.3928L58.0771 68.9638Z" fill="#202022"/>
<path d="M41.3578 101.624L37.9903 104.744L39.0063 100.264L40.3778 100.601L41.3578 101.624Z" fill="#202022"/>
</g>
<mask id="path-36-inside-3_287_42" fill="white">
<path fill-rule="evenodd" clip-rule="evenodd" d="M0 0V88.5143C0 102.595 11.7183 113.845 25.7871 113.272L33.0291 112.977C39.0078 112.733 44.7478 115.339 48.5 120C52.2522 115.339 57.9922 112.733 63.9709 112.977L71.2129 113.272C85.2817 113.845 97 102.595 97 88.5143V0H48.5H0Z"/>
</mask>
<path d="M0 0V-2H-2V0H0ZM25.7871 113.272L25.7056 111.274H25.7056L25.7871 113.272ZM33.0291 112.977L33.1105 114.975H33.1105L33.0291 112.977ZM48.5 120L46.9421 121.254L48.5 123.189L50.0579 121.254L48.5 120ZM63.9709 112.977L63.8895 114.975H63.8895L63.9709 112.977ZM71.2129 113.272L71.2944 111.274L71.2129 113.272ZM97 0H99V-2H97V0ZM2 88.5143V0H-2V88.5143H2ZM25.7056 111.274C12.7725 111.801 2 101.458 2 88.5143H-2C-2 103.731 10.6642 115.89 25.8685 115.27L25.7056 111.274ZM32.9477 110.979L25.7056 111.274L25.8685 115.27L33.1105 114.975L32.9477 110.979ZM50.0579 118.746C45.9081 113.591 39.5598 110.709 32.9477 110.979L33.1105 114.975C38.4557 114.757 43.5875 117.087 46.9421 121.254L50.0579 118.746ZM50.0579 121.254C53.4125 117.087 58.5443 114.757 63.8895 114.975L64.0523 110.979C57.4402 110.709 51.0919 113.591 46.9421 118.746L50.0579 121.254ZM63.8895 114.975L71.1315 115.27L71.2944 111.274L64.0523 110.979L63.8895 114.975ZM71.1315 115.27C86.3358 115.89 99 103.731 99 88.5143H95C95 101.458 84.2275 111.801 71.2944 111.274L71.1315 115.27ZM99 88.5143V0H95V88.5143H99ZM97 -2H48.5V2H97V-2ZM0 2H48.5V-2H0V2Z" fill="#E4E5EA" mask="url(#path-36-inside-3_287_42)"/>
<defs>
<clipPath id="clip0_287_42">
<rect width="46.7331" height="3.69865" fill="white" transform="translate(50.3494 60.239) rotate(90)"/>
</clipPath>
<clipPath id="clip1_287_42">
<rect width="46.7125" height="3.70028" fill="white" transform="matrix(0.499338 0.866407 0.865643 -0.500662 34.123 65.199)"/>
</clipPath>
<clipPath id="clip2_287_42">
<rect width="46.7125" height="3.70028" fill="white" transform="matrix(-0.499338 0.866407 -0.865643 -0.500662 62.9185 65.199)"/>
</clipPath>
</defs>
</svg>
