<svg width="32" height="32" viewBox="0 0 32 32" fill="none" xmlns="http://www.w3.org/2000/svg">
<rect x="-0.000244141" width="32.0002" height="32" rx="16" fill="#3F4D63"/>
<path d="M24.8044 22.862L20.2544 18.312C21.1358 17.2233 21.6664 15.84 21.6664 14.3333C21.6664 10.8413 18.8251 8 15.3331 8C11.8411 8 8.99976 10.8413 8.99976 14.3333C8.99976 17.8253 11.8411 20.6667 15.3331 20.6667C16.8398 20.6667 18.2231 20.136 19.3118 19.2547L23.8618 23.8047C23.9918 23.9347 24.1624 24 24.3331 24C24.5038 24 24.6744 23.9347 24.8044 23.8047C25.0651 23.544 25.0651 23.1227 24.8044 22.862ZM15.3331 19.3333C12.5758 19.3333 10.3331 17.0907 10.3331 14.3333C10.3331 11.576 12.5758 9.33331 15.3331 9.33331C18.0904 9.33331 20.3331 11.576 20.3331 14.3333C20.3331 17.0907 18.0904 19.3333 15.3331 19.3333Z" fill="#F0F1F6"/>
</svg>
