<svg width="32" height="32" viewBox="0 0 32 32" fill="none" xmlns="http://www.w3.org/2000/svg">
<rect width="32" height="32" rx="16" fill="#3F4D63"/>
<path d="M24.2806 21.0615H7.71937C7.32207 21.0615 7 21.3836 7 21.7809C7 22.1782 7.32207 22.5003 7.71937 22.5003H24.2806C24.6779 22.5003 25 22.1782 25 21.7809C25 21.3836 24.6779 21.0615 24.2806 21.0615Z" fill="#F0F1F6"/>
<path d="M24.2806 15.2803H7.71937C7.32207 15.2803 7 15.6023 7 15.9996C7 16.3969 7.32207 16.719 7.71937 16.719H24.2806C24.6779 16.719 25 16.3969 25 15.9996C25 15.6023 24.6779 15.2803 24.2806 15.2803Z" fill="#F0F1F6"/>
<path d="M24.2806 9.5H7.71937C7.32207 9.5 7 9.82207 7 10.2194C7 10.6167 7.32207 10.9387 7.71937 10.9387H24.2806C24.6779 10.9387 25 10.6167 25 10.2194C25 9.82207 24.6779 9.5 24.2806 9.5Z" fill="#F0F1F6"/>
</svg>
