<svg width="15" height="16" viewBox="0 0 15 16" fill="none" xmlns="http://www.w3.org/2000/svg">
<g id="search-interface-symbol 1" opacity="0.5" clip-path="url(#clip0_203_3)">
<g id="Group">
<g id="_x34__4_">
<g id="Group_2">
<path id="Vector" d="M14.858 14.6839L10.9853 10.8731C11.9994 9.77122 12.6226 8.31401 12.6226 6.71051C12.6221 3.28032 9.79673 0.5 6.31122 0.5C2.82571 0.5 0.000366211 3.28032 0.000366211 6.71051C0.000366211 10.1407 2.82571 12.921 6.31122 12.921C7.8172 12.921 9.19845 12.4001 10.2834 11.5341L14.1712 15.36C14.3606 15.5466 14.6682 15.5466 14.8576 15.36C15.0475 15.1734 15.0475 14.8705 14.858 14.6839ZM6.31122 11.9655C3.3621 11.9655 0.97138 9.61277 0.97138 6.71051C0.97138 3.80825 3.3621 1.45552 6.31122 1.45552C9.26036 1.45552 11.6511 3.80825 11.6511 6.71051C11.6511 9.61277 9.26036 11.9655 6.31122 11.9655Z" fill="#E4E5EA"/>
</g>
</g>
</g>
</g>
<defs>
<clipPath id="clip0_203_3">
<rect width="15" height="15" fill="white" transform="translate(0 0.5)"/>
</clipPath>
</defs>
</svg>
