<svg width="30" height="30" viewBox="0 0 30 30" fill="none" xmlns="http://www.w3.org/2000/svg">
<rect width="30" height="30" rx="5" fill="#4B8DCA"/>
<g clip-path="url(#clip0_601_31575)">
<path fill-rule="evenodd" clip-rule="evenodd" d="M20.832 9.32247C21.0173 9.24447 21.2202 9.21756 21.4195 9.24456C21.6187 9.27156 21.8071 9.35148 21.965 9.47599C22.1229 9.6005 22.2446 9.76506 22.3173 9.95254C22.39 10.14 22.4111 10.3436 22.3785 10.542L20.6775 20.8597C20.5125 21.855 19.4205 22.4257 18.5078 21.93C17.7443 21.5152 16.6103 20.8762 15.5903 20.2095C15.0803 19.8757 13.518 18.807 13.71 18.0465C13.875 17.3962 16.5 14.9527 18 13.5C18.5888 12.9292 18.3203 12.6 17.625 13.125C15.8978 14.4285 13.1265 16.4107 12.21 16.9687C11.4015 17.4607 10.98 17.5447 10.476 17.4607C9.5565 17.3077 8.70375 17.0707 8.00775 16.782C7.06725 16.392 7.113 15.099 8.007 14.7225L20.832 9.32247Z" fill="#F9F7F3"/>
</g>
<defs>
<clipPath id="clip0_601_31575">
<rect width="18" height="18" fill="white" transform="translate(6 6)"/>
</clipPath>
</defs>
</svg>
