<svg width="30" height="30" viewBox="0 0 30 30" fill="none" xmlns="http://www.w3.org/2000/svg">
<rect width="30" height="30" rx="5" fill="#4B8DCA"/>
<path fill-rule="evenodd" clip-rule="evenodd" d="M23.0402 10.6406C23.1654 10.2441 23.0402 9.95578 22.4865 9.95578H20.6454C20.181 9.95578 19.9665 10.2082 19.8414 10.4782C19.8414 10.4782 18.8943 12.7845 17.5717 14.2796C17.1428 14.7121 16.9462 14.8562 16.7139 14.8562C16.5887 14.8562 16.4277 14.7121 16.4277 14.3159V10.622C16.4277 10.1537 16.285 9.9375 15.8916 9.9375H12.9961C12.7099 9.9375 12.5313 10.1537 12.5313 10.3699C12.5313 10.8203 13.1926 10.9286 13.264 12.1896V14.9297C13.264 15.5242 13.1585 15.6328 12.9244 15.6328C12.2989 15.6328 10.7798 13.3086 9.86859 10.6603C9.69141 10.1358 9.51141 9.9375 9.04664 9.9375H7.18793C6.6518 9.9375 6.5625 10.1896 6.5625 10.4599C6.5625 10.9465 7.18793 13.3965 9.47555 16.6393C10.9946 18.8542 13.1571 20.0446 15.1051 20.0446C16.285 20.0446 16.4277 19.7742 16.4277 19.3239V17.6483C16.4277 17.108 16.5349 17.018 16.9104 17.018C17.1783 17.018 17.661 17.1618 18.7512 18.2249C20.002 19.4859 20.2165 20.0625 20.9136 20.0625H22.7544C23.2905 20.0625 23.5409 19.7921 23.3978 19.2697C23.2371 18.7473 22.6293 17.9907 21.8428 17.09C21.4139 16.5859 20.7705 16.0273 20.574 15.7569C20.3061 15.3966 20.3775 15.2524 20.574 14.9283C20.5561 14.9283 22.8082 11.7213 23.0402 10.6392" fill="#F9F7F3"/>
</svg>
