<svg width="30" height="30" viewBox="0 0 30 30" fill="none" xmlns="http://www.w3.org/2000/svg">
<rect width="30" height="30" rx="5" fill="#4B8DCA"/>
<path d="M7.50301 22.5L8.51701 18.774C7.84886 17.6286 7.49783 16.326 7.50001 15C7.50001 10.8578 10.8578 7.5 15 7.5C19.1423 7.5 22.5 10.8578 22.5 15C22.5 19.1423 19.1423 22.5 15 22.5C13.6746 22.5021 12.3725 22.1514 11.2275 21.4838L7.50301 22.5ZM12.2933 11.481C12.1964 11.487 12.1018 11.5125 12.015 11.556C11.9337 11.6021 11.8594 11.6597 11.7945 11.727C11.7045 11.8117 11.6535 11.8853 11.5988 11.9565C11.3216 12.3172 11.1725 12.7601 11.175 13.215C11.1765 13.5825 11.2725 13.9402 11.4225 14.2747C11.7293 14.9513 12.234 15.6675 12.9008 16.3312C13.0613 16.491 13.218 16.6515 13.3868 16.8007C14.2143 17.5293 15.2005 18.0548 16.2668 18.3353L16.6935 18.4005C16.8323 18.408 16.971 18.3975 17.1105 18.3907C17.3289 18.3795 17.5422 18.3203 17.7353 18.2175C17.8335 18.1669 17.9293 18.1119 18.0225 18.0525C18.0225 18.0525 18.0548 18.0315 18.1163 17.985C18.2175 17.91 18.2798 17.8568 18.3638 17.769C18.426 17.7045 18.48 17.6287 18.5213 17.5425C18.5798 17.4202 18.6383 17.187 18.6623 16.9928C18.6803 16.8442 18.675 16.7633 18.6728 16.713C18.6698 16.6328 18.603 16.5495 18.5303 16.5142L18.0938 16.3185C18.0938 16.3185 17.4413 16.0343 17.043 15.8527C17.001 15.8344 16.956 15.824 16.9103 15.822C16.8589 15.8167 16.8071 15.8225 16.7582 15.8389C16.7093 15.8554 16.6645 15.8821 16.6268 15.9172V15.9157C16.623 15.9157 16.5728 15.9585 16.0305 16.6155C15.9994 16.6573 15.9565 16.6889 15.9074 16.7063C15.8582 16.7237 15.805 16.726 15.7545 16.713C15.7056 16.6999 15.6578 16.6834 15.6113 16.6635C15.5183 16.6245 15.486 16.6095 15.4223 16.5817L15.4185 16.5802C14.9894 16.3929 14.5922 16.1399 14.241 15.8302C14.1465 15.7478 14.0588 15.6578 13.9688 15.5707C13.6737 15.2882 13.4165 14.9685 13.2038 14.6198L13.1595 14.5485C13.1277 14.5006 13.102 14.449 13.083 14.3947C13.0545 14.2845 13.1288 14.196 13.1288 14.196C13.1288 14.196 13.311 13.9965 13.3958 13.8885C13.4663 13.7987 13.5322 13.7054 13.593 13.6088C13.6815 13.4663 13.7093 13.32 13.6628 13.2067C13.4528 12.6938 13.2353 12.183 13.0118 11.676C12.9675 11.5755 12.8363 11.5035 12.717 11.4892C12.6765 11.4847 12.636 11.4802 12.5955 11.4773C12.4948 11.4722 12.3939 11.474 12.2933 11.481Z" fill="#F9F7F3"/>
</svg>
